:FULLY-SPECIFIED
:FORCE-ALL-JOINTS-BE-3DOF
:DEGREES
544
root 7.63935 14.8342 -3.68074 -178.466 49.5205 178.442
lfemur -29.4226 -4.63384 -20.1131
ltibia 80.5181 -0 0
lfoot -37.0837 1.39896 0.127435
ltoes -10.2989 0 0
rfemur -46.1657 -5.12257 -4.40669
rtibia 49.0629 -0 0
rfoot -1.60619 5.56838 -0.0243635
rtoes -44.8671 0 0
lowerback 12.8865 1.35957 0.908946
upperback 6.42916 2.8011 7.6748
thorax -0.786262 1.64863 7.17802
lowerneck -3.64003 -17.0932 -7.16081
upperneck 13.2259 -23.1499 7.1973
head 6.20359 -11.0902 1.55637
lclavicle 8.51464e-14 5.2986e-14 -1.52649e-30
lhumerus -42.5229 -18.8416 106.719
lradius 59.8773 -0 0
lwrist 26.0491 0 0
lhand -25.4771 -5.87131 -0.176844
lfingers 7.12502 -0 0
lthumb 1.06251 24.3507 -0.0939272
rclavicle 8.51464e-14 5.2986e-14 -1.52649e-30
rhumerus 20.117 9.69952 -84.258
rradius 145.159 -0 0
rwrist -59.403 0 0
rhand -32.7081 -25.4555 -0.0603424
rfingers 7.12502 -0 0
rthumb -5.93143 -55.4367 -0.0664479
545
root 7.62309 14.8933 -3.66572 -178.346 49.5722 178.515
lfemur -29.1341 -4.4612 -20.058
ltibia 80.059 -0 0
lfoot -37.1389 1.66753 0.142484
ltoes -10.2298 0 0
rfemur -46.1744 -5.39532 -4.158
rtibia 48.604 -0 0
rfoot -1.48807 5.53857 -0.0270809
rtoes -44.8832 0 0
lowerback 12.8381 1.33234 0.857623
upperback 6.40359 2.7493 7.65421
thorax -0.780292 1.61977 7.19086
lowerneck -3.6188 -17.0977 -7.15717
upperneck 13.2242 -23.162 7.20548
head 6.1944 -11.096 1.56065
lclavicle 8.43472e-14 5.21268e-14 -1.96152e-30
lhumerus -42.4324 -18.6331 106.339
lradius 59.8131 -0 0
lwrist 26.2083 0 0
lhand -25.7273 -5.90511 -0.192815
lfingers 7.12502 -0 0
lthumb 0.821789 24.3404 -0.102155
rclavicle 8.43472e-14 5.21268e-14 -1.96152e-30
rhumerus 21.0245 9.64898 -83.9831
rradius 145.655 -0 0
rwrist -60.0302 0 0
rhand -32.773 -25.4141 -0.0636573
rfingers 7.12502 -0 0
rthumb -5.99401 -55.4003 -0.0704018
546
root 7.6042 14.9557 -3.65203 -178.219 49.6641 178.588
lfemur -28.8339 -4.2911 -20.0023
ltibia 79.5554 -0 0
lfoot -37.1852 1.9415 0.157618
ltoes -10.136 0 0
rfemur -46.1913 -5.67279 -3.8875
rtibia 48.1518 -0 0
rfoot -1.35471 5.50795 -0.029771
rtoes -44.8777 0 0
lowerback 12.7813 1.30272 0.802708
upperback 6.37205 2.69315 7.62733
thorax -0.775355 1.58836 7.19969
lowerneck -3.60104 -17.0964 -7.14844
upperneck 13.2175 -23.1657 7.21023
head 6.18308 -11.098 1.56404
lclavicle 8.3441e-14 5.11893e-14 -2.43748e-30
lhumerus -42.3441 -18.4263 105.951
lradius 59.7434 -0 0
lwrist 26.3565 0 0
lhand -25.9633 -5.93543 -0.208061
lfingers 7.12502 -0 0
lthumb 0.594785 24.3323 -0.10995
rclavicle 8.3441e-14 5.11893e-14 -2.43748e-30
rhumerus 21.9178 9.60635 -83.7007
rradius 146.118 -0 0
rwrist -60.616 0 0
rhand -32.8249 -25.3675 -0.0663556
rfingers 7.12502 -0 0
rthumb -6.04406 -55.3585 -0.0737289
547
root 7.58294 15.0211 -3.63961 -178.086 49.7973 178.661
lfemur -28.5226 -4.12413 -19.9463
ltibia 79.0074 -0 0
lfoot -37.2219 2.22026 0.172727
ltoes -10.0168 0 0
rfemur -46.2168 -5.95425 -3.59518
rtibia 47.7081 -0 0
rfoot -1.20598 5.4766 -0.0324122
rtoes -44.8499 0 0
lowerback 12.716 1.27068 0.74425
upperback 6.33444 2.63264 7.59404
thorax -0.771496 1.55441 7.20436
lowerneck -3.58691 -17.0888 -7.13448
upperneck 13.2056 -23.1606 7.21142
head 6.16961 -11.0959 1.56648
lclavicle 8.24269e-14 5.01737e-14 -2.95029e-30
lhumerus -42.2583 -18.2217 105.554
lradius 59.6681 -0 0
lwrist 26.4929 0 0
lhand -26.1839 -5.9621 -0.222475
lfingers 7.12502 -0 0
lthumb 0.38263 24.3266 -0.117257
rclavicle 8.24269e-14 5.01737e-14 -2.95029e-30
rhumerus 22.794 9.57211 -83.4111
rradius 146.546 -0 0
rwrist -61.1574 0 0
rhand -32.8633 -25.3156 -0.0684194
rfingers 7.12502 -0 0
rthumb -6.08102 -55.3113 -0.0764066
548
root 7.55958 15.089 -3.6284 -177.947 49.973 178.736
lfemur -28.2006 -3.96089 -19.8901
ltibia 78.4149 -0 0
lfoot -37.2488 2.50318 0.187695
ltoes -9.87184 0 0
rfemur -46.2513 -6.23897 -3.281
rtibia 47.2743 -0 0
rfoot -1.04176 5.44457 -0.0349826
rtoes -44.799 0 0
lowerback 12.6421 1.23623 0.682301
upperback 6.29066 2.56778 7.55423
thorax -0.768761 1.51791 7.2047
lowerneck -3.57658 -17.075 -7.11514
upperneck 13.1885 -23.1466 7.20892
head 6.15394 -11.0898 1.56794
lclavicle 8.1304e-14 4.908e-14 -3.4954e-30
lhumerus -42.1753 -18.02 105.149
lradius 59.5873 -0 0
lwrist 26.6167 0 0
lhand -26.3878 -5.98491 -0.23595
lfingers 7.12502 -0 0
lthumb 0.186452 24.3233 -0.124021
rclavicle 8.1304e-14 4.908e-14 -3.4954e-30
rhumerus 23.65 9.54676 -83.1146
rradius 146.935 -0 0
rwrist -61.6512 0 0
rhand -32.8875 -25.2584 -0.0698353
rfingers 7.12502 -0 0
rthumb -6.10433 -55.2586 -0.0784167
549
root 7.53439 15.159 -3.61834 -177.801 50.1921 178.811
lfemur -27.8684 -3.80196 -19.8338
ltibia 77.7778 -0 0
lfoot -37.2653 2.78964 0.202396
ltoes -9.70042 0 0
rfemur -46.2952 -6.52621 -2.94494
rtibia 46.8521 -0 0
rfoot -0.861922 5.41193 -0.0374596
rtoes -44.7244 0 0
lowerback 12.5594 1.19935 0.616912
upperback 6.24062 2.49858 7.50777
thorax -0.767196 1.47889 7.20056
lowerneck -3.57021 -17.0546 -7.09027
upperneck 13.1659 -23.1232 7.20259
head 6.13603 -11.0794 1.56837
lclavicle 8.00712e-14 4.79084e-14 -4.06779e-30
lhumerus -42.0952 -17.8221 104.739
lradius 59.501 -0 0
lwrist 26.7271 0 0
lhand -26.574 -6.00368 -0.248378
lfingers 7.12502 -0 0
lthumb 0.00738094 24.3225 -0.130189
rclavicle 8.00712e-14 4.79084e-14 -4.06779e-30
rhumerus 24.483 9.53087 -82.8115
rradius 147.283 -0 0
rwrist -62.0944 0 0
rhand -32.897 -25.1959 -0.0705949
rfingers 7.12502 -0 0
rthumb -6.1134 -55.2004 -0.079746
550
root 7.50762 15.2307 -3.60938 -177.648 50.4558 178.888
lfemur -27.5265 -3.64792 -19.7777
ltibia 77.0962 -0 0
lfoot -37.2711 3.07904 0.216699
ltoes -9.50203 0 0
rfemur -46.3488 -6.8152 -2.58697
rtibia 46.4429 -0 0
rfoot -0.666349 5.37874 -0.0398208
rtoes -44.6253 0 0
lowerback 12.4679 1.16002 0.548137
upperback 6.18423 2.42503 7.45455
thorax -0.766844 1.43733 7.19178
lowerneck -3.56797 -17.0275 -7.05973
upperneck 13.1377 -23.0902 7.19229
head 6.11585 -11.0646 1.56774
lclavicle 7.87277e-14 4.66591e-14 -4.66195e-30
lhumerus -42.0185 -17.6284 104.322
lradius 59.4092 -0 0
lwrist 26.8232 0 0
lhand -26.7412 -6.01822 -0.259656
lfingers 7.12502 -0 0
lthumb -0.153453 24.3244 -0.13571
rclavicle 7.87277e-14 4.66591e-14 -4.66195e-30
rhumerus 25.2899 9.52507 -82.502
rradius 147.589 -0 0
rwrist -62.4838 0 0
rhand -32.8911 -25.128 -0.0706951
rfingers 7.12502 -0 0
rthumb -6.10767 -55.1366 -0.0803863
551
root 7.47956 15.3037 -3.60147 -177.489 50.7652 178.966
lfemur -27.1755 -3.49937 -19.7219
ltibia 76.3701 -0 0
lfoot -37.2656 3.37074 0.230467
ltoes -9.27608 0 0
rfemur -46.4125 -7.10517 -2.20704
rtibia 46.0484 -0 0
rfoot -0.454917 5.34506 -0.0420433
rtoes -44.5009 0 0
lowerback 12.3675 1.11823 0.476028
upperback 6.12141 2.34714 7.39446
thorax -0.767749 1.39325 7.17818
lowerneck -3.57002 -16.9935 -7.02338
upperneck 13.1038 -23.0474 7.17788
head 6.09336 -11.0452 1.56599
lclavicle 7.72724e-14 4.5332e-14 -5.27189e-30
lhumerus -41.9452 -17.4399 103.9
lradius 59.312 -0 0
lwrist 26.9042 0 0
lhand -26.8883 -6.02832 -0.269679
lfingers 7.12502 -0 0
lthumb -0.294921 24.3289 -0.140533
rclavicle 7.72724e-14 4.5332e-14 -5.27189e-30
rhumerus 26.0678 9.53002 -82.1864
rradius 147.848 -0 0
rwrist -62.8162 0 0
rhand -32.8694 -25.0548 -0.0701384
rfingers 7.12502 -0 0
rthumb -6.08657 -55.0672 -0.0803352
552
root 7.45047 15.3775 -3.59456 -177.322 51.1213 179.046
lfemur -26.8157 -3.35688 -19.6666
ltibia 75.5994 -0 0
lfoot -37.2486 3.66414 0.243557
ltoes -9.02204 0 0
rfemur -46.4867 -7.39533 -1.8051
rtibia 45.67 -0 0
rfoot -0.227501 5.31096 -0.0441042
rtoes -44.3507 0 0
lowerback 12.258 1.07395 0.400643
upperback 6.05205 2.26491 7.32737
thorax -0.769952 1.34666 7.15963
lowerneck -3.5765 -16.9523 -6.98109
upperneck 13.064 -22.9943 7.15923
head 6.06852 -11.0212 1.56308
lclavicle 7.57046e-14 4.39273e-14 -5.89112e-30
lhumerus -41.8756 -17.2571 103.474
lradius 59.2093 -0 0
lwrist 26.9694 0 0
lhand -27.0141 -6.03381 -0.27835
lfingers 7.12502 -0 0
lthumb -0.415892 24.3363 -0.14461
rclavicle 7.57046e-14 4.39273e-14 -5.89112e-30
rhumerus 26.8138 9.54643 -81.865
rradius 148.06 -0 0
rwrist -63.0887 0 0
rhand -32.831 -24.9761 -0.0689335
rfingers 7.12502 -0 0
rthumb -6.04952 -54.992 -0.0795959
553
root 7.4206 15.4518 -3.58858 -177.148 51.5253 179.129
lfemur -26.4478 -3.22102 -19.6121
ltibia 74.7841 -0 0
lfoot -37.2194 3.95861 0.255819
ltoes -8.73933 0 0
rfemur -46.5718 -7.68487 -1.38113
rtibia 45.3095 -0 0
rfoot 0.0160214 5.27649 -0.0459805
rtoes -44.1738 0 0
lowerback 12.1394 1.02718 0.322038
upperback 5.97608 2.17832 7.25319
thorax -0.773496 1.29755 7.13595
lowerneck -3.58757 -16.9039 -6.93272
upperneck 13.0181 -22.9308 7.13617
head 6.04129 -10.9924 1.55897
lclavicle 7.40231e-14 4.24451e-14 -6.51265e-30
lhumerus -41.8099 -17.0808 103.045
lradius 59.1012 -0 0
lwrist 27.018 0 0
lhand -27.1175 -6.03449 -0.285572
lfingers 7.12502 -0 0
lthumb -0.515238 24.3465 -0.147898
rclavicle 7.40231e-14 4.24451e-14 -6.51265e-30
rhumerus 27.5249 9.57509 -81.538
rradius 148.221 -0 0
rwrist -63.298 0 0
rhand -32.7756 -24.8919 -0.0670953
rfingers 7.12502 -0 0
rthumb -5.99596 -54.9111 -0.0781782
554
root 7.39024 15.5261 -3.58348 -176.965 51.9781 179.214
lfemur -26.0722 -3.09236 -19.5585
ltibia 73.9241 -0 0
lfoot -37.1777 4.25354 0.267101
ltoes -8.42739 0 0
rfemur -46.668 -7.97299 -0.935066
rtibia 44.9682 -0 0
rfoot 0.275773 5.24172 -0.0476495
rtoes -43.9697 0 0
lowerback 12.0114 0.977881 0.240272
upperback 5.89341 2.08736 7.1718
thorax -0.77842 1.24594 7.10699
lowerneck -3.60338 -16.8479 -6.87813
upperneck 12.9661 -22.8566 7.10857
head 6.01163 -10.9587 1.55362
lclavicle 7.2227e-14 4.08856e-14 -7.12901e-30
lhumerus -41.7482 -16.9117 102.613
lradius 58.9876 -0 0
lwrist 27.049 0 0
lhand -27.1972 -6.03016 -0.291253
lfingers 7.12502 -0 0
lthumb -0.591828 24.3598 -0.150354
rclavicle 7.2227e-14 4.08856e-14 -7.12901e-30
rhumerus 28.1983 9.6168 -81.2058
rradius 148.328 -0 0
rwrist -63.441 0 0
rhand -32.7025 -24.8022 -0.0646452
rfingers 7.12502 -0 0
rthumb -5.92531 -54.8244 -0.0760982
555
root 7.35964 15.5999 -3.57921 -176.774 52.481 179.303
lfemur -25.6895 -2.97147 -19.5062
ltibia 73.0195 -0 0
lfoot -37.1231 4.54831 0.277245
ltoes -8.08567 0 0
rfemur -46.7757 -8.25883 -0.466874
rtibia 44.6478 -0 0
rfoot 0.551876 5.20672 -0.0490883
rtoes -43.7374 0 0
lowerback 11.8741 0.926037 0.155405
upperback 5.80396 1.99203 7.08309
thorax -0.784765 1.19183 7.07259
lowerneck -3.62408 -16.7841 -6.8172
upperneck 12.9076 -22.7713 7.07627
head 5.9795 -10.9199 1.54697
lclavicle 7.03154e-14 3.92488e-14 -7.7322e-30
lhumerus -41.6908 -16.7506 102.178
lradius 58.8687 -0 0
lwrist 27.0618 0 0
lhand -27.2521 -6.02064 -0.295309
lfingers 7.12502 -0 0
lthumb -0.644532 24.3761 -0.151941
rclavicle 7.03154e-14 3.92488e-14 -7.7322e-30
rhumerus 28.831 9.67245 -80.8685
rradius 148.381 -0 0
rwrist -63.5147 0 0
rhand -32.6111 -24.7069 -0.0616118
rfingers 7.12502 -0 0
rthumb -5.837 -54.7317 -0.0733792
